<svg xmlns="http://www.w3.org/2000/svg" viewBox="0 0 48 48" role="img" aria-label="Backlog Bazaar coin (market stall)">
  <defs>
    <radialGradient id="face" cx="38%" cy="30%" r="78%">
      <stop offset="0%" stop-color="#FFE680"/>
      <stop offset="45%" stop-color="#FBB022"/>
      <stop offset="100%" stop-color="#E07A0C"/>
    </radialGradient>
    <linearGradient id="rim" x1="0" y1="0" x2="0" y2="1">
      <stop offset="0%" stop-color="#F0A41A"/>
      <stop offset="100%" stop-color="#A0560A"/>
    </linearGradient>
    <g id="m">
      <rect x="23.3" y="12.8" width="1.4" height="6" rx="0.5"/>
      <path d="M24.7 13.2 L28.4 14.5 L24.7 15.8 Z"/>
      <rect x="12.5" y="17.5" width="23" height="5" rx="1.5"/>
      <circle cx="16" cy="22.5" r="2.4"/>
      <circle cx="20.7" cy="22.5" r="2.4"/>
      <circle cx="25.4" cy="22.5" r="2.4"/>
      <circle cx="30.1" cy="22.5" r="2.4"/>
      <rect x="13.3" y="22.5" width="2.2" height="11.5" rx="0.6"/>
      <rect x="32.5" y="22.5" width="2.2" height="11.5" rx="0.6"/>
      <rect x="12.3" y="31.3" width="23.4" height="2.6" rx="1"/>
    </g>
  </defs>
  <ellipse cx="24" cy="25.6" rx="20.5" ry="20.5" fill="#4f2705" opacity="0.35"/>
  <circle cx="24" cy="24" r="21" fill="#7a3d07"/>
  <circle cx="24" cy="24" r="20" fill="url(#rim)"/>
  <g fill="#FFD24D" stroke="#995008" stroke-width="0.5">
    <circle cx="42.2" cy="24" r="1.5"/><circle cx="36.9" cy="11.1" r="1.5"/>
    <circle cx="24" cy="5.8" r="1.5"/><circle cx="11.1" cy="11.1" r="1.5"/>
    <circle cx="5.8" cy="24" r="1.5"/><circle cx="11.1" cy="36.9" r="1.5"/>
    <circle cx="24" cy="42.2" r="1.5"/><circle cx="36.9" cy="36.9" r="1.5"/>
  </g>
  <circle cx="24" cy="24" r="16.5" fill="#9c5408"/>
  <circle cx="24" cy="23.4" r="15.3" fill="url(#face)"/>
  <circle cx="24" cy="23.4" r="15.3" fill="none" stroke="#FFE89A" stroke-width="0.9" opacity="0.5"/>
  <path d="M12.5 16.5 A13.5 13.5 0 0 1 30 11.2" fill="none" stroke="#FFFFFF" stroke-width="2.3" stroke-linecap="round" opacity="0.5"/>
  <circle cx="16.5" cy="16.8" r="2.4" fill="#FFFFFF" opacity="0.5"/>
  <use href="#m" x="-0.4" y="-0.7" fill="#FFE3A8" opacity="0.6"/>
  <use href="#m" fill="#9A5006"/>
</svg>
