<svg xmlns="http://www.w3.org/2000/svg" viewBox="0 0 700 190" preserveAspectRatio="xMaxYMid slice"><path d="M482 176V88q0-71 71-71t71 71v88M553 17v159M482 89h142" stroke="#aaa3c8" stroke-width="3" fill="none"/><path d="M508 176V90q0-47 45-47t45 47v86" stroke="#aaa3c8" fill="none"/><path d="M602 19a23 23 0 1 0 24 29 26 26 0 0 1-24-29" fill="#eee4ff"/><g stroke="#98b2a2" stroke-width="3" fill="none"><path d="M524 176q-20-37-4-70m65 70q20-45-1-66"/></g><g fill="#aaa1c6"><ellipse cx="515" cy="130" rx="10" ry="4" transform="rotate(30 515 130)"/><ellipse cx="588" cy="137" rx="11" ry="4" transform="rotate(-30 588 137)"/></g></svg>
