<svg xmlns="http://www.w3.org/2000/svg" viewBox="0 0 700 190" preserveAspectRatio="xMaxYMid slice"><path d="M462 32h165v140H462Z" fill="#25372f" stroke="#93ac78" stroke-width="3"/><path d="M462 95h165M462 153h165" stroke="#b79966" stroke-width="5"/><g stroke="#d5e9bb" stroke-width="2"><path d="M489 43h15v12l8 15v16h-31V70l8-15Z" fill="#73a37c"/><path d="M539 50h12v9q15 24-6 27-21-3-6-27Z" fill="#a390bd"/><path d="M587 38h13v18l12 26h-37l12-26Z" fill="#cab57a"/><path d="M485 108h18v13l9 22h-35l8-22Z" fill="#b58c69"/><path d="M555 111h16v12q14 23-8 24-22-1-8-24Z" fill="#72a6a0"/></g><path d="M614 109q-14 5-6 15t-5 15" stroke="#aacf9b" fill="none"/></svg>
